<svg class="d-none" xmlns="http://www.w3.org/2000/svg" xmlns:xlink="http://www.w3.org/1999/xlink">
  <symbol id="audio" viewBox="0 0 720 720">
    <path d="M 640 360 C 640 304.667 625.334 254.167 596 208.5 C 566.667 162.834 527.334 128.667 478 106 C 468 101.334 460.667 94.167 456 84.5 C 451.334 74.834 450.667 65 454 55 C 458 44.334 465.167 36.667 475.5 32 C 485.834 27.334 496.334 27.334 507 32 C 571.667 60.667 623.334 104.5 662 163.5 C 700.667 222.5 720 288 720 360 C 720 432 700.667 497.5 662 556.5 C 623.334 615.5 571.667 659.334 507 688 C 496.334 692.667 485.834 692.667 475.5 688 C 465.167 683.334 458 675.667 454 665 C 450.667 655 451.334 645.167 456 635.5 C 460.667 625.834 468 618.667 478 614 C 527.334 591.334 566.667 557.167 596 511.5 C 625.334 465.834 640 415.334 640 360 Z M 160 481 L 40 481 C 28.667 481 19.167 477.167 11.5 469.5 C 3.834 461.834 0 452.334 0 441 L 0 281 C 0 269.667 3.834 260.167 11.5 252.5 C 19.167 244.834 28.667 241 40 241 L 160 241 L 292 109 C 304.667 96.334 319.167 93.5 335.5 100.5 C 351.834 107.5 360 120 360 138 L 360 584 C 360 602 351.834 614.5 335.5 621.5 C 319.167 628.5 304.667 625.667 292 613 L 160 481 Z M 540 361 C 540 389 533.667 415.5 521 440.5 C 508.334 465.5 491.667 486 471 502 C 464.334 506 457.5 506.167 450.5 502.5 C 443.5 498.834 440 493 440 485 L 440 235 C 440 227 443.5 221.167 450.5 217.5 C 457.5 213.834 464.334 214 471 218 C 491.667 234.667 508.334 255.667 521 281 C 533.667 306.334 540 333 540 361 Z M 280 235 L 194 321 L 80 321 L 80 401 L 194 401 L 280 487 L 280 235 Z M 180 361 Z"/>
  </symbol>
  <symbol id="search" viewBox="0 0 19.5 19.5">
    <path
    d="M 14.603 15.967 L 10.811 12.17 C 10.427 12.439 10.01 12.641 9.558 12.775 C 9.107 12.91 8.629 12.977 8.126 12.977 C 6.777 12.977 5.627 12.507 4.677 11.567 C 3.725 10.627 3.25 9.481 3.25 8.131 C 3.25 6.781 3.725 5.63 4.677 4.678 C 5.627 3.726 6.777 3.25 8.126 3.25 C 9.475 3.25 10.618 3.726 11.557 4.678 C 12.497 5.63 12.966 6.781 12.966 8.131 C 12.966 8.641 12.902 9.119 12.773 9.565 C 12.645 10.011 12.441 10.416 12.16 10.781 L 15.98 14.634 C 16.169 14.823 16.259 15.047 16.249 15.305 C 16.24 15.564 16.145 15.785 15.963 15.967 C 15.774 16.155 15.547 16.25 15.283 16.25 C 15.019 16.25 14.792 16.155 14.603 15.967 Z M 8.126 11.025 C 8.929 11.025 9.611 10.743 10.173 10.181 C 10.735 9.618 11.016 8.935 11.016 8.131 C 11.016 7.316 10.738 6.624 10.182 6.055 C 9.626 5.487 8.941 5.203 8.126 5.203 C 7.311 5.203 6.62 5.487 6.052 6.055 C 5.484 6.624 5.201 7.316 5.201 8.131 C 5.201 8.947 5.484 9.633 6.052 10.189 C 6.62 10.746 7.311 11.025 8.126 11.025 Z"
    fill="currentcolor" />
  </symbol>
  <symbol id="brand" viewBox="0 0 934 229">
      <path fill="#2775EA"
        d="M35.0669524,67.7544919 L35.0192327,205.006708 C35.0165428,212.743448 28.7439216,219.013889 21.0071813,219.013889 C13.2712287,219.013889 7,212.74266 7,205.006708 L7,15.3447038 C7,10.7360511 10.7360511,7 15.3447038,7 C20.591558,7 25.5257918,9.49486759 28.6360916,13.7204462 L139.658025,164.552179 C140.640197,165.886534 142.518114,166.172035 143.852469,165.189863 C144.621073,164.62412 145.074641,163.72643 145.074089,162.772062 L144.993746,23.9932901 C144.98927,16.261816 151.25324,9.99058939 158.984714,9.98611346 C158.987416,9.98611189 158.990117,9.98611111 158.992819,9.98611111 C166.728771,9.98611111 173,16.2573398 173,23.9932924 L173,213.655296 C173,218.263949 169.263949,222 164.655296,222 C159.405589,222 154.465743,219.514938 151.336525,215.299796 L40.4757389,65.9673106 C39.4881299,64.6369744 37.609064,64.3591391 36.2787278,65.3467482 C35.5166867,65.9124688 35.0672823,66.8054153 35.0669524,67.7544919 Z M263.600897,61.6696562 L275.578082,61.6696562 C277.234936,61.6696562 278.578082,60.3265105 278.578082,58.6696562 L278.578082,44.3321868 C278.578082,35.9740016 284.225526,28.6715453 292.315068,26.5695067 C298.182358,25.0449127 304.174663,28.5653625 305.699257,34.4326516 C305.933503,35.3341301 306.052055,36.261758 306.052055,37.1931734 L306.052055,58.6696562 C306.052055,60.3265105 307.395201,61.6696562 309.052055,61.6696562 L341.63472,61.6696562 C348.041718,61.6696562 353.235616,66.8635546 353.235616,73.2705531 C353.235616,79.6775515 348.041718,84.8714499 341.63472,84.8714499 L309.052055,84.8714499 C307.395201,84.8714499 306.052055,86.2145957 306.052055,87.8714499 L306.052055,164.590433 L306.052055,164.590433 C306.052055,177.083707 307.644749,185.908321 310.830137,191.064275 C314.015525,196.220229 319.490411,198.798206 327.254795,198.798206 C332.231963,198.798206 336.761187,198.252865 340.842466,197.162182 C341.96191,196.863022 343.404319,196.443574 345.169691,195.903839 C350.496678,194.275229 356.145776,197.217806 357.864384,202.516442 C359.638788,207.987105 356.727631,213.874815 351.303266,215.786078 C347.016183,217.296615 343.429706,218.425969 340.543836,219.174141 C333.277169,221.058047 325.463014,222 317.10137,222 C303.165297,222 293.260731,218.232187 287.387671,210.696562 C281.514612,203.160937 278.578082,190.865969 278.578082,173.811659 L278.578082,87.8714499 C278.578082,86.2145957 277.234936,84.8714499 275.578082,84.8714499 L263.600897,84.8714499 C257.193898,84.8714499 252,79.6775515 252,73.2705531 C252,66.8635546 257.193898,61.6696562 263.600897,61.6696562 Z M455.869711,88.5757377 C452.786567,87.9411366 450.785476,87.6238361 449.866438,87.6238361 C439.339041,87.6238361 431.145548,90.3054004 425.285959,95.6685289 C419.42637,101.031657 415.80137,107.785227 414.410959,115.929236 L414.410959,208.294521 C414.410959,215.863848 408.274807,222 400.705479,222 C393.136152,222 387,215.863848 387,208.294521 L387,75.1096656 C387,69.8440466 391.268628,65.575419 396.534247,65.575419 C402.145765,65.575419 407.045394,69.3745585 408.442864,74.8092817 L408.75,76.0037244 C409.565708,79.1759893 412.798598,81.0863563 415.970863,80.2706485 C417.021629,80.0004574 417.978146,79.447207 418.736262,78.6710802 C423.521008,73.7731412 427.293281,70.3514341 430.053082,68.405959 C436.111301,64.1353197 443.708904,62 452.84589,62 C453.868588,62 456.472984,62.3324662 460.659079,62.9973985 C467.725029,64.1197293 472.543241,70.757673 471.420865,77.8236153 C471.390901,78.0122543 471.356769,78.2002075 471.318493,78.3873371 C469.871152,85.4633789 462.961585,90.0263423 455.885543,88.5790011 C455.880264,88.5779213 455.874986,88.5768383 455.869711,88.5757377 Z M513.5,65.8699512 C520.955844,65.8699512 527,71.9141071 527,79.3699512 L527,208.5 C527,215.955844 520.955844,222 513.5,222 C506.044156,222 500,215.955844 500,208.5 L500,79.3699512 C500,71.9141071 506.044156,65.8699512 513.5,65.8699512 Z M500.332871,32.7007372 C500.332871,29.1994377 501.541522,26.0406566 503.958823,23.224394 C506.376124,20.4081313 509.532045,19 513.426586,19 C517.321126,19 520.544194,20.4081313 523.09579,23.224394 C525.647386,26.0406566 526.923184,29.1994377 526.923184,32.7007372 C526.923184,36.2020367 525.647386,39.2847025 523.09579,41.9487348 C520.544194,44.612767 517.321126,45.9447831 513.426586,45.9447831 C509.532045,45.9447831 506.376124,44.612767 503.958823,41.9487348 C501.541522,39.2847025 500.332871,36.2020367 500.332871,32.7007372 Z M212.5,65.8699512 C219.955844,65.8699512 226,71.9141071 226,79.3699512 L226,208.5 C226,215.955844 219.955844,222 212.5,222 C205.044156,222 199,215.955844 199,208.5 L199,79.3699512 C199,71.9141071 205.044156,65.8699512 212.5,65.8699512 Z M199.332871,32.7007372 C199.332871,29.1994377 200.541522,26.0406566 202.958823,23.224394 C205.376124,20.4081313 208.532045,19 212.426586,19 C216.321126,19 219.544194,20.4081313 222.09579,23.224394 C224.647386,26.0406566 225.923184,29.1994377 225.923184,32.7007372 C225.923184,36.2020367 224.647386,39.2847025 222.09579,41.9487348 C219.544194,44.612767 216.321126,45.9447831 212.426586,45.9447831 C208.532045,45.9447831 205.376124,44.612767 202.958823,41.9487348 C200.541522,39.2847025 199.332871,36.2020367 199.332871,32.7007372 Z M575.743012,69.256321 C597.223966,63.0854403 615.43614,60 630.379535,60 C642.284079,60 651.857316,61.5414365 659.099247,64.6243094 C666.341178,67.7071823 671.946234,71.6353591 675.914415,76.4088398 C679.882597,81.1823204 682.511517,86.5027624 683.801176,92.3701657 C685.090834,98.2375691 685.735664,104.055249 685.735664,109.823204 C685.735664,120.762431 685.338846,131.751381 684.54521,142.790055 C683.751573,153.828729 683.354755,165.812155 683.354755,178.740331 C683.354755,186.298343 683.701971,193.607735 684.396403,200.668508 C684.662769,203.376836 685.153545,206.68323 685.868734,210.58769 C686.680029,215.016915 683.747131,219.265205 679.31791,220.076514 C678.833278,220.165285 678.341598,220.209945 677.848904,220.209945 C671.918288,220.209945 666.676667,216.353543 664.911652,210.69166 L661.324239,199.183821 C660.797368,197.493706 659.232705,196.342541 657.462372,196.342541 L657.462372,196.342541 L657.462372,196.342541 C655.279873,199.325967 652.60135,202.359116 649.426805,205.441989 C646.25226,208.524862 642.482488,211.259669 638.117489,213.646409 C633.752489,216.033149 628.74266,218.022099 623.088002,219.61326 C617.433344,221.20442 610.935447,222 603.594311,222 C596.253176,222 589.507268,220.955801 583.356587,218.867403 C577.205906,216.779006 571.898463,213.845304 567.434259,210.066298 C562.970055,206.287293 559.448295,201.662983 556.868977,196.19337 C554.289659,190.723757 553,184.607735 553,177.845304 C553,168.895028 554.934488,161.138122 558.803465,154.574586 C562.672442,148.01105 567.682271,142.640884 573.832952,138.464088 C579.983633,134.287293 586.977552,131.20442 594.81471,129.21547 C602.651868,127.226519 610.439424,126.232044 618.177378,126.232044 C624.328059,126.232044 629.536296,126.331492 633.802091,126.530387 C638.067886,126.729282 641.639249,126.977901 644.516181,127.276243 C647.393112,127.574586 649.823623,127.872928 651.807714,128.171271 C653.791805,128.469613 655.577486,128.718232 657.164759,128.917127 C657.561577,125.933702 657.85919,123.348066 658.057599,121.160221 C658.256009,118.972376 658.355213,116.187845 658.355213,112.80663 C658.355213,107.237569 657.759986,102.563536 656.569531,98.7845304 C655.379077,95.0055249 653.444589,91.9723757 650.766066,89.6850829 C648.087544,87.3977901 644.466579,85.7569061 639.90317,84.7624309 C635.339762,83.7679558 629.784308,83.2707182 623.236809,83.2707182 C619.467036,83.2707182 615.300446,83.5690608 610.737038,84.1657459 C606.173629,84.7624309 601.610221,85.6077348 597.046812,86.7016575 C592.483404,87.7955801 587.969598,89.1381215 583.505394,90.7292818 C583.072971,90.8834086 582.618558,91.050832 582.142155,91.2315518 C576.444582,93.3928541 570.073694,90.5261673 567.912368,84.828604 C567.847987,84.6588858 567.787803,84.4876047 567.731873,84.3149171 C565.712928,78.0813363 569.129566,71.3913423 575.363147,69.3723975 C575.489115,69.3315985 575.615758,69.2929113 575.743012,69.256321 Z M652.105328,147.712707 C652.105328,147.712707 652.105328,147.712707 652.105328,147.712707 C650.319646,147.314917 648.087544,147.016575 645.409022,146.81768 C642.730499,146.618785 639.555954,146.41989 635.885387,146.220994 C632.214819,146.022099 627.701013,145.922652 622.343968,145.922652 C610.042606,145.922652 600.27096,148.110497 593.029029,152.486188 C585.787098,156.861878 582.166132,164.320442 582.166132,174.861878 C582.166132,182.81768 584.993462,188.78453 590.64812,192.762431 C596.302778,196.740331 603.594311,198.729282 612.522719,198.729282 C619.070218,198.729282 624.873683,197.883978 629.933115,196.19337 C634.992546,194.502762 639.357545,192.414365 643.028113,189.928177 C646.698681,187.441989 649.674817,184.657459 651.956521,181.574586 C653.477657,179.519337 655.250857,176.51422 657.276122,172.559235 L657.276122,172.559235 L657.189944,154.024518 C657.175843,150.991763 655.065554,148.372147 652.105328,147.712707 Z M801.11881,152.724343 C807.67637,157.541421 814.796389,161.15413 822.478869,163.562469 C830.161148,165.971008 838.229643,167.175278 846.684353,167.175278 C868.932938,167.175278 887.881026,159.444592 903.528615,143.98322 C919.176205,128.521848 927,109.656826 927,87.3881555 C927,65.1194844 919.176205,46.1542907 903.528615,30.4925744 C887.881026,14.8308581 868.932938,7 846.684353,7 C824.435768,7 805.587763,14.8308581 790.140336,30.4925744 C774.69291,46.1542907 766.969197,65.1194844 766.969197,87.3881555 C766.969197,95.8983812 768.12234,103.97426 770.428625,111.615793 C772.73471,119.257126 776.394201,126.235419 781.407098,132.550672 L715.927478,198.461747 C713.190441,201.201255 711.883973,204.451341 712.008074,208.212004 C712.131976,211.972867 713.538525,215.199112 716.227723,217.890738 C718.96476,220.630246 722.262056,222 726.119609,222 C729.976961,222 733.274156,220.630246 736.011193,217.890738 L801.11881,152.724343 Z M846.199708,139 C832.016338,139 819.937211,134.012558 809.962327,124.037673 C799.987442,114.062789 795,101.983662 795,87.8002915 C795,73.4167269 799.937394,61.1874538 809.812181,51.1124723 C819.686968,41.0374908 831.816144,36 846.199708,36 C860.583273,36 872.812546,41.0374908 882.887528,51.1124723 C892.962509,61.1874538 898,73.4167269 898,87.8002915 C898,102.183856 892.962509,114.313032 882.887528,124.187819 C872.812546,134.062606 860.583273,139 846.199708,139 Z"
        id="path-bjrmbf34nq-2"></path>
  </symbol>
</svg>